PathFileType	4	(X/Y/Z)	C:\Users\Basilio\Documents\Thesis Gigler\squatting_fais\c3dfiles\075\SLS_front_pre4\markers_experimental.trc
DataRate	CameraRate	NumFrames	NumMarkers	Units	OrigDataRate	OrigDataStartFrame	OrigNumFrames
200.000000	200.000000	4	61	mm	200.000000	0	1334
Frame#	Time	FHD			LBHD			RBHD			C7			T10			CLAV			LSHO			LUUPA			LMUPA			LDUPA			LLEP			LMEP			LRAD			LUL			LRFIN			RSHO			RUPA1			RMUPA			RDUPA			RLEP			RMEP			RRAD			RUL			RUFIN			USACR			LSACR			RSACR			LTHI1			LTHI2			LTHI3			LTHI4			LLFC			LMFC			LTIB1			LTIB2			LTIB3			LTIB4			LLMAL			LMMAL			LHEE			LMT1			LMT2			LMT5			RTHI			RTHI2			RTHI3			RTHI4			RLFC			RMFC			RTIB1			RTIB2			RTIB3			RTIB4			RLMAL			RMMAL			RHEE			RMT1			RMT2			RMT5			RASI			LASI			
		X1	Y1	Z1	X2	Y2	Z2	X3	Y3	Z3	X4	Y4	Z4	X5	Y5	Z5	X6	Y6	Z6	X7	Y7	Z7	X8	Y8	Z8	X9	Y9	Z9	X10	Y10	Z10	X11	Y11	Z11	X12	Y12	Z12	X13	Y13	Z13	X14	Y14	Z14	X15	Y15	Z15	X16	Y16	Z16	X17	Y17	Z17	X18	Y18	Z18	X19	Y19	Z19	X20	Y20	Z20	X21	Y21	Z21	X22	Y22	Z22	X23	Y23	Z23	X24	Y24	Z24	X25	Y25	Z25	X26	Y26	Z26	X27	Y27	Z27	X28	Y28	Z28	X29	Y29	Z29	X30	Y30	Z30	X31	Y31	Z31	X32	Y32	Z32	X33	Y33	Z33	X34	Y34	Z34	X35	Y35	Z35	X36	Y36	Z36	X37	Y37	Z37	X38	Y38	Z38	X39	Y39	Z39	X40	Y40	Z40	X41	Y41	Z41	X42	Y42	Z42	X43	Y43	Z43	X44	Y44	Z44	X45	Y45	Z45	X46	Y46	Z46	X47	Y47	Z47	X48	Y48	Z48	X49	Y49	Z49	X50	Y50	Z50	X51	Y51	Z51	X52	Y52	Z52	X53	Y53	Z53	X54	Y54	Z54	X55	Y55	Z55	X56	Y56	Z56	X57	Y57	Z57	X58	Y58	Z58	X59	Y59	Z59	X60	Y60	Z60	X61	Y61	Z61	

1	0	-312.1842956542969	1729.201904296875	-906.3945312500002	-450.8644104003907	1587.75537109375	-941.3507080078127	-380.7283935546876	1628.884887695313	-799.2551269531252	-463.6622619628907	1474.518920898438	-902.7464599609377	-464.8703918457032	1148.620239257813	-902.1953735351565	-317.0254211425782	1422.673583984375	-898.8965454101565	-347.6917724609376	1448.984497070313	-1060.8408203125	-340.9407958984376	1238.117553710938	-1166.317138671875	-300.7427978515626	1220.9990234375	-1141.4814453125	-320.9048461914063	1171.507446289063	-1172.118041992188	-291.7943725585938	1091.565063476563	-1164.173828125	-365.0932006835938	1079.070068359375	-1111.422241210938	-199.9748840332032	985.7061767578127	-950.0388793945315	-169.79736328125	939.8192138671877	-1000.90625	-139.5684051513672	967.7976684570315	-902.558288574219	-359.2473449707032	1439.529418945313	-735.5677490234376	-366.5825195312501	1230.180541992188	-630.1207885742189	-327.0863342285157	1206.84326171875	-649.4223022460939	-355.0952148437501	1161.165649414063	-620.0596923828126	-333.3748168945313	1093.436767578125	-620.8262939453126	-392.305389404297	1060.982543945313	-670.2226562500001	-180.3126373291016	1000.010681152344	-833.6240234375002	-172.5673828125	958.4605102539065	-768.9985351562502	-109.9586486816407	958.7002563476565	-867.489196777344	-442.727020263672	1044.563842773438	-901.4261474609377	-446.6451721191407	1012.593566894531	-928.0050048828127	-445.1766052246095	1014.037292480469	-871.4337158203127	-318.6414184570313	747.1642456054689	-1104.492797851563	-283.6507263183594	669.8219604492189	-1105.616088867188	-238.2756958007813	677.6217041015626	-1090.284545898438	-308.0485839843751	615.1968383789064	-1098.862670898438	-314.1187438964844	506.0111694335939	-1093.511474609375	-268.5754089355469	488.0915527343751	-971.8240966796877	-267.6404724121094	378.3236999511719	-1066.041259765625	-332.6000061035157	347.6408996582032	-1115.570068359375	-292.4465332031251	335.8472900390626	-1097.077880859375	-304.6154785156251	255.5750427246094	-1070.831420898438	-395.7552795410157	127.6634597778321	-1089.117919921875	-363.9509582519532	133.0846862792969	-1010.366821289063	-453.8477783203126	100.074935913086	-1048.433837890625	-248.8684234619141	51.66390228271486	-1029.257202148438	-247.6101684570313	55.27344512939455	-1078.74072265625	-288.3385314941407	45.7265853881836	-1130.05517578125	-333.1358032226563	792.871520996094	-705.4413452148439	-293.4730529785157	741.1632080078126	-708.1060180664064	-262.7747497558594	748.1741943359376	-718.5225219726564	-319.2151794433594	659.0191650390626	-715.3401489257814	-331.7416076660157	504.6949768066407	-743.6176757812501	-288.0382995605469	495.4859313964845	-865.7105712890627	-286.7887878417969	354.0183715820313	-803.4611816406252	-344.7193298339844	280.5904541015626	-746.8595581054689	-307.6664123535157	272.8709716796876	-776.596130371094	-318.9555969238282	228.3846740722657	-813.090026855469	-395.760955810547	113.0140762329102	-778.1543579101565	-361.0368652343751	134.9180145263672	-857.368103027344	-446.5633850097657	92.11058807373048	-837.253601074219	-242.0166473388672	58.45854949951173	-824.7724609375002	-248.0746765136719	55.60129547119142	-783.3515625000002	-289.9010925292969	35.66200256347657	-734.6539916992189	nan	nan	nan	nan	nan	nan	
2	0.005	-312.0971984863282	1729.225952148438	-906.4216918945315	-450.866424560547	1587.802734375	-941.3649902343752	-380.8038635253907	1628.883422851563	-799.2068481445315	-463.7576293945314	1474.505493164063	-902.7751464843752	-464.9622192382814	1148.609985351563	-902.1926879882815	-317.1318359375001	1422.6376953125	-898.9258422851565	-347.1234130859376	1448.836547851563	-1060.366455078125	-340.9705505371094	1238.051513671875	-1166.286987304688	-301.5344848632813	1221.13671875	-1141.921752929688	-320.9025268554688	1171.444091796875	-1172.091186523438	-291.8647155761719	1091.50830078125	-1164.168334960938	-365.1610717773438	1079.015380859375	-1111.400512695313	-199.9851684570313	985.7078247070315	-949.9705200195315	-169.7880249023438	939.8546142578127	-1000.884887695313	-139.5675354003907	967.7695312500002	-902.5615234375002	-359.1803588867188	1439.391723632813	-735.5608520507814	-366.6971435546876	1230.213012695313	-630.1385498046876	-327.2165832519532	1206.882690429688	-649.4088745117189	-355.1494750976563	1161.173461914063	-620.0729980468751	-333.4710083007813	1093.474487304688	-620.8164672851564	-392.3472595214845	1060.970825195313	-670.2263793945314	-180.3489379882813	1000.00830078125	-833.5608520507815	-172.5526428222657	958.4463500976565	-768.9866333007815	-109.9660263061524	958.7353515625002	-867.4153442382815	-442.7640686035157	1044.541748046875	-901.4002685546877	-446.7023315429689	1012.571166992188	-927.962097167969	-445.2211914062501	1014.026977539063	-871.3586425781252	-318.6631774902344	747.1542968750001	-1104.492431640625	-283.7126464843751	669.8167724609376	-1105.595947265625	-238.3413543701172	677.6325073242189	-1090.262084960938	-308.1434631347657	615.1918334960939	-1098.838012695313	-314.1387329101563	505.9849853515626	-1093.504150390625	-268.6013793945313	488.0987854003907	-971.7747802734377	-267.6481018066407	378.3222351074219	-1066.042602539063	-332.6161499023438	347.6316833496094	-1115.526733398438	-292.4396667480469	335.8455200195313	-1097.060546875	-304.6121826171876	255.6080932617188	-1070.80810546875	-395.672821044922	127.648666381836	-1089.144897460938	-363.9316711425782	133.0925750732422	-1010.343688964844	-453.8164978027345	100.0851058959961	-1048.455322265625	-248.8701782226563	51.66295623779298	-1029.257690429688	-247.6032867431641	55.25482559204103	-1078.74462890625	-288.3391113281251	45.71629714965821	-1130.056396484375	-333.1951599121094	792.8735351562502	-705.4069824218751	-293.5640258789063	741.1040649414064	-708.0618286132814	-262.8136291503907	748.1959838867189	-718.5230712890626	-319.2972717285157	659.0127563476564	-715.3234252929689	-331.7879333496094	504.6941223144532	-743.6402587890626	-288.0894470214844	495.491424560547	-865.7182617187502	-286.8186035156251	354.0493469238282	-803.4341430664065	-344.7337951660157	280.6073303222657	-746.7647094726564	-307.7372131347657	272.8591003417969	-776.5920410156252	-318.9833374023438	228.3828430175782	-813.075866699219	-395.727020263672	113.0132446289063	-778.1132812500002	-361.0654296875001	134.89404296875	-857.3453369140627	-446.5666503906251	92.09272766113283	-837.2518310546877	-242.0162353515626	58.49053192138673	-824.7696533203127	-248.0664520263672	55.60086059570314	-783.3486328125002	-289.9103088378907	35.65998458862305	-734.6788330078126	nan	nan	nan	nan	nan	nan	
3	0.01	-312.0935974121094	1729.170654296875	-906.439636230469	-450.9546508789064	1587.839721679688	-941.4714965820315	-380.8919677734376	1628.880615234375	-799.2363891601565	-463.885467529297	1474.487670898438	-902.856628417969	-465.0427246093751	1148.574462890625	-902.1643676757815	-317.1645812988282	1422.592407226563	-898.948669433594	-347.8713989257813	1448.894897460938	-1060.870239257813	-341.1168518066407	1238.00732421875	-1166.298706054688	-301.5806579589844	1221.150268554688	-1141.932861328125	-321.0358276367188	1171.38916015625	-1172.117797851563	-291.8859863281251	1091.437133789063	-1164.125610351563	-365.2021179199219	1078.975341796875	-1111.297485351563	-199.9851684570313	985.7077636718752	-949.9705200195315	-169.8132629394532	939.8296508789065	-1000.823547363281	-139.5699462890625	967.759460449219	-902.477478027344	-359.4661560058594	1439.516357421875	-735.6521606445314	-366.7801513671876	1230.227416992188	-630.1730957031251	-327.2698364257813	1206.891723632813	-649.4598999023439	-355.2413940429688	1161.18212890625	-620.0657348632814	-333.5413818359376	1093.509765625	-620.8179321289064	-392.4683837890626	1061.019775390625	-670.2259521484376	-180.3864288330078	1000.022216796875	-833.5917968750002	-172.6158905029297	958.4915161132815	-768.9812622070315	-110.0204391479492	958.7569580078127	-867.406677246094	-442.7801208496095	1044.54638671875	-901.3428344726565	-446.7491455078126	1012.577392578125	-927.9254150390627	-445.2652893066407	1014.049255371094	-871.3328857421877	-318.6712341308594	747.1882324218751	-1104.495361328125	-283.7145996093751	669.8164672851564	-1105.593872070313	-239.3255920410157	677.9097900390626	-1090.624877929688	-308.1424255371094	615.1880493164064	-1098.818969726563	-314.1457824707032	505.9886169433595	-1093.468994140625	-268.6329345703126	488.0598449707032	-971.7952880859377	-267.6981811523438	378.2962951660157	-1066.052124023438	-332.6958923339844	347.6497497558594	-1115.510864257813	-291.6692199707032	335.6585388183594	-1096.549682617188	-304.6045532226563	255.6262969970704	-1070.831787109375	-395.7111816406251	127.6346206665039	-1089.109130859375	-363.9466247558594	133.0660705566407	-1010.346618652344	-453.8245544433595	100.0887298583985	-1048.433349609375	-248.8704528808594	51.66311645507814	-1029.2578125	-247.6573638916016	55.24542617797853	-1078.727294921875	-288.3121337890626	45.73617172241212	-1130.053588867188	-333.2475891113282	792.8736572265627	-705.3267822265626	-293.6014404296876	741.1638183593751	-708.0801391601564	-262.8776855468751	748.1944580078126	-718.5217285156251	-319.3502807617188	659.0304565429689	-715.2678833007814	-331.8505859375001	504.7014465332032	-743.6378173828126	-288.2163391113282	495.5035705566407	-865.7288818359377	-286.8221435546876	354.0630493164063	-803.4110107421877	-344.7866516113282	280.6392211914063	-746.8038940429689	-307.7464294433594	272.9012451171876	-776.5625000000002	-319.0227355957032	228.3817901611329	-813.125671386719	-395.7716369628907	113.0108489990235	-778.1605224609377	-360.9720458984376	134.9640350341797	-857.309997558594	-446.5609130859376	92.06925201416017	-837.2478027343752	-242.0206451416016	58.48671722412111	-824.7657470703127	-248.0615539550782	55.58998870849611	-783.3440551757815	-289.9222412109376	35.67047119140626	-734.6387939453126	nan	nan	nan	nan	nan	nan	
4	0.015	-312.0918884277344	1729.124877929688	-906.4403076171877	-450.9546508789064	1587.839721679688	-941.4714965820315	-380.9700927734376	1628.909423828125	-799.1812744140627	-463.9658508300782	1474.477416992188	-902.8867187500002	-465.0653076171876	1148.549560546875	-902.1450805664065	-317.2773742675782	1422.604248046875	-898.9351196289065	-347.9342956542969	1448.879516601563	-1060.887573242188	-341.1704101562501	1237.978881835938	-1166.272094726563	-301.6902770996094	1221.099365234375	-1141.88916015625	-321.0440063476563	1171.302124023438	-1172.023681640625	-291.9675292968751	1091.395751953125	-1164.12939453125	-365.1905517578126	1078.979248046875	-1111.264038085938	-200.0541076660157	985.699157714844	-949.9014282226565	-169.8744049072266	939.8192138671877	-1000.827453613281	-139.5977020263672	967.7160644531252	-902.4595947265627	-359.5860290527344	1439.541625976563	-735.6986694335939	-366.8693847656251	1230.211547851563	-630.2182006835939	-327.3554382324219	1206.9072265625	-649.4911499023439	-355.2847290039063	1161.189575195313	-620.0568237304689	-333.6184997558594	1093.526733398438	-620.8243408203126	-392.5118103027345	1061.052612304688	-670.2919921875001	-180.4034881591797	1000.044250488281	-833.538513183594	-172.6481170654297	958.522644042969	-768.922058105469	-110.0174331665039	958.743591308594	-867.3642578125002	-442.8699340820314	1044.537353515625	-901.2957153320315	-446.7908020019532	1012.572326660156	-927.8945312500002	-445.2741699218751	1014.033447265625	-871.2923583984377	-318.7598571777344	747.1668090820314	-1104.4580078125	-283.7753295898438	669.8037109375001	-1105.546264648438	-238.4378356933594	677.6410522460939	-1090.2138671875	-308.1735534667969	615.2089233398439	-1098.7548828125	-314.2408447265626	506.0111694335939	-1093.404296875	-268.6786499023438	488.0838012695314	-971.7121582031252	-267.7169494628907	378.3275451660157	-1066.021850585938	-332.7132873535157	347.6691894531251	-1115.505493164063	-292.4993591308594	335.8519897460938	-1097.05712890625	-304.6338500976563	255.6255798339844	-1070.817993164063	-395.7277832031251	127.6597518920899	-1089.104736328125	-363.9708251953126	133.0743103027344	-1010.317260742188	-453.8445129394532	100.0904006958008	-1048.434936523438	-248.8813171386719	51.65805053710939	-1029.271850585938	-247.6296539306641	55.24172973632814	-1078.768798828125	-288.3390502929688	45.71708679199219	-1130.056884765625	-333.3039245605469	792.8907470703127	-705.2929077148439	-293.6441650390626	741.1087036132814	-708.0220336914064	-262.9225769042969	748.2034912109376	-718.4448852539064	-319.3793029785157	659.0541381835939	-715.2550048828126	-331.9434204101563	504.7064819335939	-743.6163940429689	-288.2684326171876	495.543670654297	-865.7518310546877	-286.8987731933594	354.0807800292969	-803.412048339844	-344.8129272460938	280.6344299316407	-746.8225097656251	-307.7996215820313	272.9221801757813	-776.5757446289065	-319.0057373046876	228.3987121582032	-813.1011962890627	-395.7599182128907	113.0125274658203	-778.138366699219	-361.0467224121094	134.9210205078125	-857.314392089844	-446.5667114257814	92.08864593505861	-837.2788696289065	-242.0110321044922	58.49655151367189	-824.7601318359377	-248.0703277587891	55.60426712036134	-783.3474731445315	-289.8972778320313	35.66803741455079	-734.6508178710939	nan	nan	nan	nan	nan	nan	
